<svg id="Layer_1" data-name="Layer 1" xmlns="http://www.w3.org/2000/svg" viewBox="0 0 735.46 188.93"><defs><style>.cls-1{fill:#288c46;}.cls-2{fill:#231f20;}</style></defs><path class="cls-1" d="M178.94,565.36c0-24.16,18.6-44.19,45.93-44.19,13.29,0,22.9,4,29.48,9.23C257.64,533,259,536,259,538.78a7.7,7.7,0,0,1-8,7.65,11.51,11.51,0,0,1-7.08-2.68,30.52,30.52,0,0,0-18.73-6.31c-16.7,0-28,12-28,28.29,0,15.78,10.5,27.8,27.33,27.8,12.9,0,22.14-7.28,25-18.21H222.09a7.83,7.83,0,1,1,0-15.66h37.45c6.07,0,9.24,3.4,9.24,9.83a26.6,26.6,0,0,1-.26,2.92c-2,16.63-16.07,37.39-43.65,37.39C197.79,609.8,178.94,589.89,178.94,565.36Z" transform="translate(-178.94 -499.29)"/><path class="cls-1" d="M287.76,608.59c-6.2,0-11.77-4.25-11.77-13.6,0-27.8,45.3-29.38,45.3-47.11,0-5.7-4.43-10.68-12.53-10.68-6.2,0-10.12,3.15-12.52,8.25a9.32,9.32,0,0,1-8.61,5.83,8.45,8.45,0,0,1-8.73-8.5,14.1,14.1,0,0,1,1.65-6.19c4.8-9.35,16.95-15.42,29.22-15.42,15.69,0,29.87,9.59,29.87,27.08,0,28.29-38.72,27.92-44.16,43.83H332a8.26,8.26,0,1,1,0,16.51Z" transform="translate(-178.94 -499.29)"/><path class="cls-1" d="M352.54,531.13c0-5.59,3.29-8.74,9.11-8.74h27.21c19,0,33.28,10.32,33.28,29,0,18.34-14.3,30-34.42,30H370.89v19.18a9,9,0,0,1-9.11,8.87,9.11,9.11,0,0,1-9.24-8.87Zm18.35,34.11h18c8.48,0,14.93-4.73,14.93-13.35s-6.45-13.48-14.93-13.48h-18Z" transform="translate(-178.94 -499.29)"/><path class="cls-2" d="M891.86,535A103.77,103.77,0,0,1,862,564.57V537.3c0-4.17-3.74-7.5-9.35-7.5s-9.35,3.33-9.35,7.5V574A113.77,113.77,0,0,1,813.34,581V530.7c0-4.54-3.74-8.17-9.35-8.17s-9.34,3.63-9.34,8.17V581c0,.12,0,.24,0,.37-1.11,0-2.2-.06-3.31-.13a193.35,193.35,0,0,1-27.11-4.21V539.55c0-4.53-4.67-7.71-9.35-7.71s-9.34,3.63-9.34,7.71v32.6c-9.46-2.85-18.81-6.14-28.05-9.63v-8.23c0-5-4.45-8.84-9.34-8.84a9.16,9.16,0,0,0-9.35,8.84v.9c-8.2-3.29-16.31-6.6-24.3-9.74-34.59-13.61-70.1-26.3-107.49-28.57-38.79-2.72-73.84,12.24-100.95,38.54-10.75,10.43,6.07,26.75,17.29,16.33a116.19,116.19,0,0,1,19.16-15.07v29.83c0,4.39,3.74,7.91,9.35,7.91s9.35-3.52,9.35-7.91V547.34a110.1,110.1,0,0,1,27.8-6.58v50.1c0,4.73,3.74,8.52,9.35,8.52s9.35-3.79,9.35-8.52V540.21a153.44,153.44,0,0,1,17.06,1.61q7.46,1.2,14.83,2.87v41.19c0,4.54,3.73,8.16,9.34,8.16s9.35-3.62,9.35-8.16v-36.2c9.63,2.86,19.17,6.12,28.63,9.64v12a9.82,9.82,0,0,0,19.63,0V566.9c10.94,4.34,21.83,8.78,32.72,13,37.39,14.51,77.58,27.66,118.24,24.48,39.72-3.17,73.37-25.39,94.87-57.58C920.83,534.11,900.27,522.32,891.86,535Z" transform="translate(-178.94 -499.29)"/><ellipse class="cls-2" cx="528.68" cy="33.36" rx="9.81" ry="9.52"/><ellipse class="cls-2" cx="624.88" cy="9.52" rx="9.81" ry="9.52"/><ellipse class="cls-2" cx="575.72" cy="17.78" rx="9.81" ry="9.52"/><ellipse class="cls-2" cx="673.66" cy="20.12" rx="9.81" ry="9.52"/><path class="cls-2" d="M231.82,651.36q5.51,2.88,6.74,10.13h-4.95a9.06,9.06,0,0,0-3.75-5.9,12.9,12.9,0,0,0-7.17-1.84,11.23,11.23,0,0,0-8.63,3.84q-3.51,3.85-3.51,11.47,0,6.59,2.89,10.72t9.43,4.14a12,12,0,0,0,8.28-2.91q3.28-2.89,3.36-9.39H223v-4.15h16.21v19.77h-3.22l-1.2-4.76a19.32,19.32,0,0,1-4.5,3.88,16.9,16.9,0,0,1-8.38,1.86A16.35,16.35,0,0,1,210.57,684q-5.15-5.34-5.15-14.64t5-14.76a16,16,0,0,1,12.37-5.22A19,19,0,0,1,231.82,651.36Z" transform="translate(-178.94 -499.29)"/><path class="cls-2" d="M268.22,661.05a10.28,10.28,0,0,1,4.1,3.48,11.92,11.92,0,0,1,1.81,4.75,31,31,0,0,1,.4,5.94H254.8a11.53,11.53,0,0,0,1.93,6.57,6.5,6.5,0,0,0,5.61,2.48,7.26,7.26,0,0,0,5.66-2.34,8,8,0,0,0,1.71-3.14h4.45a9.4,9.4,0,0,1-1.17,3.3,11.65,11.65,0,0,1-2.23,3,10.44,10.44,0,0,1-5.1,2.72,15.42,15.42,0,0,1-3.7.4,11.33,11.33,0,0,1-8.52-3.66q-3.49-3.66-3.5-10.24a15.52,15.52,0,0,1,3.52-10.54,11.63,11.63,0,0,1,9.21-4A12.21,12.21,0,0,1,268.22,661.05Zm1.66,10.57a11.64,11.64,0,0,0-1.28-4.7q-1.86-3.27-6.21-3.27a6.89,6.89,0,0,0-5.23,2.25,8.53,8.53,0,0,0-2.24,5.72Z" transform="translate(-178.94 -499.29)"/><path class="cls-2" d="M285.24,660.31h4.3v3.82a11.83,11.83,0,0,1,4-3.39,10.75,10.75,0,0,1,4.75-1c3.82,0,6.4,1.34,7.74,4a14.17,14.17,0,0,1,1.11,6.26v17.28h-4.6v-17a9.14,9.14,0,0,0-.73-4,4.42,4.42,0,0,0-4.37-2.51,9.13,9.13,0,0,0-2.64.32,6.76,6.76,0,0,0-3.27,2.22,6.5,6.5,0,0,0-1.47,2.75,18.31,18.31,0,0,0-.34,4.06v14.11h-4.53Z" transform="translate(-178.94 -499.29)"/><path class="cls-2" d="M335.8,661.05a10.34,10.34,0,0,1,4.1,3.48,12.07,12.07,0,0,1,1.81,4.75,31,31,0,0,1,.4,5.94H322.37a11.53,11.53,0,0,0,1.94,6.57,6.49,6.49,0,0,0,5.61,2.48,7.22,7.22,0,0,0,5.65-2.34,7.71,7.71,0,0,0,1.71-3.14h4.45a9,9,0,0,1-1.17,3.3,11.63,11.63,0,0,1-2.22,3,10.52,10.52,0,0,1-5.11,2.72,15.4,15.4,0,0,1-3.69.4,11.32,11.32,0,0,1-8.52-3.66q-3.5-3.66-3.5-10.24T321,663.75a11.61,11.61,0,0,1,9.2-4A12.25,12.25,0,0,1,335.8,661.05Zm1.66,10.57a11.81,11.81,0,0,0-1.28-4.7q-1.86-3.27-6.21-3.27a6.87,6.87,0,0,0-5.23,2.25,8.48,8.48,0,0,0-2.24,5.72Z" transform="translate(-178.94 -499.29)"/><path class="cls-2" d="M373.18,652.79h4.57v7.52h4.3V664h-4.3v17.58a1.88,1.88,0,0,0,1,1.88,4,4,0,0,0,1.76.28h.7l.88-.06v3.57a9.48,9.48,0,0,1-1.62.32,14.79,14.79,0,0,1-1.82.1c-2.11,0-3.55-.54-4.3-1.62a7.15,7.15,0,0,1-1.13-4.21V664h-3.65v-3.69h3.65Z" transform="translate(-178.94 -499.29)"/><path class="cls-2" d="M411.39,663q3.6,3.46,3.6,10.21A17.54,17.54,0,0,1,411.82,684q-3.17,4.24-9.83,4.25a11.12,11.12,0,0,1-8.83-3.76q-3.27-3.76-3.27-10.1,0-6.78,3.45-10.81a11.55,11.55,0,0,1,9.25-4A12.17,12.17,0,0,1,411.39,663Zm-2.8,17.91a17,17,0,0,0,1.67-7.58,13.4,13.4,0,0,0-1.21-6.13q-1.91-3.72-6.59-3.72a6.5,6.5,0,0,0-6,3.16,14.69,14.69,0,0,0-1.89,7.65,12.74,12.74,0,0,0,1.89,7.16,6.64,6.64,0,0,0,6,2.87C405.42,684.32,407.47,683.18,408.59,680.91Z" transform="translate(-178.94 -499.29)"/><path class="cls-2" d="M446.05,650.3h16.62a11.28,11.28,0,0,1,7.95,2.78q3,2.77,3,7.81a11.38,11.38,0,0,1-2.69,7.53q-2.7,3.2-8.28,3.2H451.06v15.62h-5Zm19.52,5.08a10.94,10.94,0,0,0-4.56-.78h-9.95v12.8H461a9.48,9.48,0,0,0,5.47-1.44c1.4-1,2.1-2.64,2.1-5.05C468.58,658.2,467.58,656.35,465.57,655.38Z" transform="translate(-178.94 -499.29)"/><path class="cls-2" d="M484.59,660.31h4.3V665a10.28,10.28,0,0,1,2.59-3.31,6.72,6.72,0,0,1,4.75-1.95l.43,0,1,.1v4.78a5.42,5.42,0,0,0-.74-.1c-.22,0-.47,0-.74,0a6.47,6.47,0,0,0-5.26,2.2,7.71,7.71,0,0,0-1.83,5.07v15.49h-4.53Z" transform="translate(-178.94 -499.29)"/><path class="cls-2" d="M526.43,663q3.59,3.46,3.59,10.21A17.48,17.48,0,0,1,526.85,684q-3.17,4.24-9.83,4.25a11.11,11.11,0,0,1-8.82-3.76q-3.27-3.76-3.27-10.1,0-6.78,3.44-10.81a11.59,11.59,0,0,1,9.26-4A12.17,12.17,0,0,1,526.43,663Zm-2.81,17.91a16.91,16.91,0,0,0,1.68-7.58,13.53,13.53,0,0,0-1.21-6.13q-1.9-3.72-6.59-3.72a6.49,6.49,0,0,0-6,3.16,14.69,14.69,0,0,0-1.89,7.65,12.74,12.74,0,0,0,1.89,7.16c1.25,1.91,3.25,2.87,6,2.87Q522,684.32,523.62,680.91Z" transform="translate(-178.94 -499.29)"/><path class="cls-2" d="M541.46,652.79H546v7.52h4.3V664H546v17.58a1.88,1.88,0,0,0,1,1.88,4,4,0,0,0,1.76.28h.7l.88-.06v3.57a9.48,9.48,0,0,1-1.62.32,14.79,14.79,0,0,1-1.82.1c-2.11,0-3.55-.54-4.3-1.62a7.22,7.22,0,0,1-1.13-4.21V664h-3.65v-3.69h3.65Z" transform="translate(-178.94 -499.29)"/><path class="cls-2" d="M576.78,661.05a10.34,10.34,0,0,1,4.1,3.48,12.07,12.07,0,0,1,1.81,4.75,31,31,0,0,1,.4,5.94H563.35a11.53,11.53,0,0,0,1.94,6.57,6.49,6.49,0,0,0,5.61,2.48,7.24,7.24,0,0,0,5.65-2.34,7.71,7.71,0,0,0,1.71-3.14h4.45a9,9,0,0,1-1.17,3.3,11.63,11.63,0,0,1-2.22,3,10.52,10.52,0,0,1-5.11,2.72,15.34,15.34,0,0,1-3.69.4,11.36,11.36,0,0,1-8.53-3.66q-3.5-3.66-3.49-10.24T562,663.75a11.61,11.61,0,0,1,9.2-4A12.25,12.25,0,0,1,576.78,661.05Zm1.66,10.57a11.81,11.81,0,0,0-1.28-4.7q-1.86-3.27-6.21-3.27a6.87,6.87,0,0,0-5.23,2.25,8.48,8.48,0,0,0-2.24,5.72Z" transform="translate(-178.94 -499.29)"/><path class="cls-2" d="M593.8,650.3h4.6v5.13h-4.6Zm0,10.13h4.6v26.81h-4.6Z" transform="translate(-178.94 -499.29)"/><path class="cls-2" d="M610.39,660.31h4.3v3.82a11.89,11.89,0,0,1,4-3.39,10.79,10.79,0,0,1,4.76-1c3.82,0,6.4,1.34,7.74,4a14.17,14.17,0,0,1,1.11,6.26v17.28h-4.6v-17a9.29,9.29,0,0,0-.73-4,4.44,4.44,0,0,0-4.38-2.51,9.23,9.23,0,0,0-2.64.32,6.81,6.81,0,0,0-3.27,2.22,6.73,6.73,0,0,0-1.47,2.75,18.94,18.94,0,0,0-.34,4.06v14.11h-4.52Z" transform="translate(-178.94 -499.29)"/><path class="cls-2" d="M664.71,650.3h16.62a11.3,11.3,0,0,1,7.95,2.78q3,2.77,3,7.81a11.33,11.33,0,0,1-2.69,7.53q-2.69,3.2-8.27,3.2H669.71v15.62h-5Zm19.51,5.08a10.86,10.86,0,0,0-4.55-.78h-10v12.8h10a9.48,9.48,0,0,0,5.47-1.44c1.4-1,2.1-2.64,2.1-5.05C687.24,658.2,686.23,656.35,684.22,655.38Z" transform="translate(-178.94 -499.29)"/><path class="cls-2" d="M705.34,660.31l7.19,21.92,7.52-21.92h5l-10.16,26.93H710l-9.93-26.93Z" transform="translate(-178.94 -499.29)"/><path class="cls-2" d="M734.93,652.79h4.57v7.52h4.3V664h-4.3v17.58a1.88,1.88,0,0,0,1,1.88,4,4,0,0,0,1.76.28h.7l.88-.06v3.57a9.48,9.48,0,0,1-1.62.32,14.79,14.79,0,0,1-1.82.1c-2.11,0-3.55-.54-4.3-1.62a7.15,7.15,0,0,1-1.13-4.21V664h-3.65v-3.69h3.65Z" transform="translate(-178.94 -499.29)"/><path class="cls-2" d="M754.56,681.76h5.25v5.48h-5.25Z" transform="translate(-178.94 -499.29)"/><path class="cls-2" d="M793,650.3h5v32.54h18.7v4.4H793Z" transform="translate(-178.94 -499.29)"/><path class="cls-2" d="M827.08,652.79h4.58v7.52H836V664h-4.3v17.58a1.89,1.89,0,0,0,1,1.88,4,4,0,0,0,1.76.28h.71l.88-.06v3.57a9.48,9.48,0,0,1-1.62.32,14.85,14.85,0,0,1-1.83.1c-2.11,0-3.54-.54-4.3-1.62a7.22,7.22,0,0,1-1.13-4.21V664h-3.64v-3.69h3.64Z" transform="translate(-178.94 -499.29)"/><path class="cls-2" d="M860.49,661.14a11.88,11.88,0,0,1,2.74,2.64V650.17h4.35v37.07h-4.07v-3.75a9.8,9.8,0,0,1-3.75,3.6,10.8,10.8,0,0,1-5,1.1,10,10,0,0,1-7.79-3.78q-3.3-3.79-3.3-10.07a17.37,17.37,0,0,1,3-10.2,9.83,9.83,0,0,1,8.58-4.31A9.57,9.57,0,0,1,860.49,661.14Zm-10.15,20.19a6.42,6.42,0,0,0,5.88,2.91,6.21,6.21,0,0,0,5.17-2.7c1.34-1.8,2-4.39,2-7.76s-.7-5.92-2.09-7.55a6.49,6.49,0,0,0-5.15-2.45,6.82,6.82,0,0,0-5.55,2.61c-1.41,1.75-2.12,4.31-2.12,7.7A13.31,13.31,0,0,0,850.34,681.33Z" transform="translate(-178.94 -499.29)"/><path class="cls-2" d="M880.5,681.76h5.26v5.48H880.5Z" transform="translate(-178.94 -499.29)"/></svg>