<svg id="Layer_1" data-name="Layer 1" xmlns="http://www.w3.org/2000/svg" viewBox="0 0 1025.92 158.89"><defs><style>.cls-1{fill:#231f20;}</style></defs><path class="cls-1" d="M24.34,555c0-34.73,25.94-63.53,64.07-63.53,18.53,0,32,5.76,41.13,13.26,4.58,3.67,6.53,8,6.53,12a10.9,10.9,0,0,1-11.12,11,15.8,15.8,0,0,1-9.89-3.84,41.78,41.78,0,0,0-26.12-9.07c-23.3,0-39,17.28-39,40.67,0,22.69,14.65,40,38.13,40,18,0,30.89-10.47,34.94-26.18H84.53c-7.24,0-11.12-5.59-11.12-11.17s3.7-11.35,11.12-11.35h52.24c8.47,0,12.89,4.89,12.89,14.14a39.33,39.33,0,0,1-.36,4.19c-2.82,23.91-22.41,53.76-60.89,53.76C50.64,618.91,24.34,590.29,24.34,555Z" transform="translate(-24.34 -460.02)"/><path class="cls-1" d="M176.13,617.17c-8.64,0-16.41-6.11-16.41-19.55,0-40,63.19-42.25,63.19-67.73,0-8.21-6.18-15.36-17.48-15.36-8.64,0-14.12,4.54-17.47,11.87-2.65,5.93-7.41,8.38-12,8.38a12,12,0,0,1-12.18-12.22,20.76,20.76,0,0,1,2.29-8.91c6.71-13.44,23.66-22.16,40.78-22.16,21.88,0,41.65,13.79,41.65,38.92,0,40.67-54,40.15-61.6,63h51a11.87,11.87,0,1,1,0,23.74Z" transform="translate(-24.34 -460.02)"/><path class="cls-1" d="M266.51,505.8c0-8,4.59-12.57,12.7-12.57h38c26.48,0,46.42,14.84,46.42,41.72,0,26.36-19.94,43.12-48,43.12H292.1v27.58a12.73,12.73,0,0,1-12.71,12.74,12.88,12.88,0,0,1-12.88-12.74Zm25.59,49.05h25.06C329,554.85,338,548,338,535.65s-9-19.38-20.83-19.38H292.1Z" transform="translate(-24.34 -460.02)"/><path class="cls-1" d="M1018.81,516.74a146.69,146.69,0,0,1-41.72,42.48V520c0-6-5.22-10.77-13-10.77S951,514,951,520v52.82a154.59,154.59,0,0,1-41.72,10V510.52c0-6.52-5.22-11.73-13-11.73s-13,5.21-13,11.73v72.37c0,.18,0,.35,0,.53-1.54-.07-3.06-.08-4.61-.19a261.51,261.51,0,0,1-37.81-6.05V523.26c0-6.52-6.52-11.09-13-11.09s-13,5.22-13,11.09v46.86c-13.19-4.09-26.23-8.82-39.12-13.85V544.44a13,13,0,0,0-26.07,0v1.3c-11.44-4.73-22.76-9.49-33.9-14-48.25-19.56-97.79-37.81-149.95-41.07-54.11-3.91-103,17.6-140.81,55.41-15,15,8.47,38.47,24.12,23.47a163,163,0,0,1,26.73-21.66v42.88c0,6.32,5.21,11.38,13,11.38s13-5.06,13-11.38v-56.3A150.11,150.11,0,0,1,540.62,525v72c0,6.81,5.22,12.25,13,12.25s13-5.44,13-12.25V524.2a205.47,205.47,0,0,1,23.8,2.32q10.41,1.71,20.68,4.13v59.22c0,6.52,5.22,11.73,13,11.73s13-5.21,13-11.73V537.81c13.44,4.11,26.74,8.81,39.94,13.87v17.21a13.69,13.69,0,0,0,27.38,0v-6.32c15.27,6.25,30.46,12.64,45.64,18.71,52.15,20.86,108.22,39.77,164.93,35.2,55.42-4.56,102.36-36.51,132.34-82.79C1059.23,515.43,1030.54,498.48,1018.81,516.74Z" transform="translate(-24.34 -460.02)"/><circle class="cls-1" cx="804.57" cy="23.06" r="13.69"/><circle class="cls-1" cx="737.47" cy="42.62" r="13.69"/><circle class="cls-1" cx="871.67" cy="13.69" r="13.69"/><circle class="cls-1" cx="939.71" cy="28.49" r="13.69"/></svg>